<svg data-v-423bf9ae="" xmlns="http://www.w3.org/2000/svg" viewBox="0 0 743 90" class="iconLeft"><!----><!----><!----><g data-v-423bf9ae="" id="3e4e7e5c-4553-4d17-ba08-3fb617c7ffe5" fill="#DA0807" transform="matrix(4.273504285115473,0,0,4.273504285115473,123.19903493371686,15.128203434915505)"><path d="M0.59 0.27L0 0.13L0 0L0 0Q0.17 0.04 0.41 0.07L0.41 0.07L0.41 0.07Q0.60 0.10 0.91 0.11L0.91 0.11L0.91 0.11Q1.22 0.13 1.62 0.13L1.62 0.13L1.62 0.13Q2.10 0.13 2.46 0.11L2.46 0.11L2.46 0.11Q2.81 0.10 3.05 0.07L3.05 0.07L3.05 0.07Q3.33 0.04 3.54 0L3.54 0L3.54 0.13L2.88 0.27L2.88 0.27Q2.86 0.48 2.92 0.97L2.92 0.97L2.92 0.97Q2.98 1.47 3.12 2.16L3.12 2.16L3.12 2.16Q3.25 2.84 3.44 3.68L3.44 3.68L3.44 3.68Q3.63 4.52 3.84 5.41L3.84 5.41L3.84 5.41Q4.06 6.30 4.30 7.20L4.30 7.20L4.30 7.20Q4.55 8.11 4.79 8.93L4.79 8.93L4.79 8.93Q5.03 9.76 5.25 10.46L5.25 10.46L5.25 10.46Q5.47 11.16 5.67 11.63L5.67 11.63L5.67 11.63Q5.91 10.93 6.17 9.95L6.17 9.95L6.17 9.95Q6.44 8.96 6.69 7.86L6.69 7.86L6.69 7.86Q6.93 6.76 7.15 5.61L7.15 5.61L7.15 5.61Q7.38 4.47 7.54 3.44L7.54 3.44L7.54 3.44Q7.70 2.42 7.79 1.59L7.79 1.59L7.79 1.59Q7.88 0.76 7.87 0.27L7.87 0.27L7.14 0.13L7.14 0L7.14 0Q7.35 0.04 7.60 0.07L7.60 0.07L7.60 0.07Q7.81 0.10 8.08 0.11L8.08 0.11L8.08 0.11Q8.34 0.13 8.62 0.13L8.62 0.13L8.62 0.13Q9.03 0.13 9.31 0.11L9.31 0.11L9.31 0.11Q9.59 0.10 9.79 0.07L9.79 0.07L9.79 0.07Q10.01 0.04 10.15 0L10.15 0L10.15 0.13L9.70 0.27L9.70 0.27Q8.72 3.37 7.84 6.09L7.84 6.09L7.84 6.09Q7.46 7.25 7.07 8.44L7.07 8.44L7.07 8.44Q6.68 9.63 6.31 10.70L6.31 10.70L6.31 10.70Q5.94 11.76 5.62 12.63L5.62 12.63L5.62 12.63Q5.31 13.50 5.08 14.01L5.08 14.01L5.08 14.01Q4.86 13.55 4.58 12.74L4.58 12.74L4.58 12.74Q4.30 11.93 3.98 10.91L3.98 10.91L3.98 10.91Q3.67 9.88 3.33 8.72L3.33 8.72L3.33 8.72Q3.00 7.56 2.66 6.41L2.66 6.41L2.66 6.41Q2.32 5.26 2.01 4.20L2.01 4.20L2.01 4.20Q1.69 3.14 1.42 2.30L1.42 2.30L1.42 2.30Q1.15 1.46 0.94 0.91L0.94 0.91L0.94 0.91Q0.73 0.36 0.59 0.27L0.59 0.27ZM14.49 1.37L13.24 6.92L15.99 6.92L14.49 1.37ZM12.78 0.07L12.78-0.01L12.78-0.01Q13.03 0.01 13.34 0.03L13.34 0.03L13.34 0.03Q13.61 0.06 13.97 0.06L13.97 0.06L13.97 0.06Q14.34 0.07 14.78 0.07L14.78 0.07L14.78 0.07Q15.23 0.07 15.66 0.06L15.66 0.06L15.66 0.06Q16.09 0.06 16.42 0.03L16.42 0.03L16.42 0.03Q16.81 0.01 17.16-0.01L17.16-0.01L17.16 0.07L16.24 0.22L16.24 0.22Q16.90 3.95 17.53 6.87L17.53 6.87L17.53 6.87Q17.79 8.13 18.09 9.34L18.09 9.34L18.09 9.34Q18.38 10.54 18.66 11.49L18.66 11.49L18.66 11.49Q18.94 12.45 19.21 13.05L19.21 13.05L19.21 13.05Q19.47 13.65 19.70 13.69L19.70 13.69L19.70 13.69Q19.84 13.72 19.95 13.74L19.95 13.74L19.95 13.74Q20.06 13.76 20.15 13.79L20.15 13.79L20.15 13.79Q20.24 13.82 20.31 13.85L20.31 13.85L20.31 14L20.31 14Q20.08 13.97 19.81 13.93L19.81 13.93L19.81 13.93Q19.57 13.90 19.26 13.87L19.26 13.87L19.26 13.87Q18.96 13.85 18.61 13.85L18.61 13.85L18.61 13.85Q18.17 13.85 17.87 13.87L17.87 13.87L17.87 13.87Q17.57 13.90 17.37 13.93L17.37 13.93L17.37 13.93Q17.15 13.97 17.01 14L17.01 14L17.01 13.85L17.46 13.69L16.24 8.01L13.09 8.01L13.09 8.01Q13.09 7.98 13.03 8.39L13.03 8.39L13.03 8.39Q12.98 8.79 12.92 9.41L12.92 9.41L12.92 9.41Q12.85 10.02 12.80 10.76L12.80 10.76L12.80 10.76Q12.75 11.49 12.77 12.14L12.77 12.14L12.77 12.14Q12.78 12.78 12.87 13.22L12.87 13.22L12.87 13.22Q12.95 13.66 13.17 13.71L13.17 13.71L13.17 13.71Q13.45 13.76 13.58 13.79L13.58 13.79L13.58 13.79Q13.71 13.82 13.75 13.83L13.75 13.83L13.75 13.83Q13.80 13.85 13.76 13.85L13.76 13.85L13.76 14L13.76 14Q13.51 13.97 13.22 13.93L13.22 13.93L13.22 13.93Q12.96 13.90 12.63 13.87L12.63 13.87L12.63 13.87Q12.31 13.85 11.93 13.85L11.93 13.85L11.93 13.85Q11.58 13.85 11.26 13.87L11.26 13.87L11.26 13.87Q10.93 13.90 10.70 13.93L10.70 13.93L10.70 13.93Q10.40 13.97 10.15 14L10.15 14L10.15 13.85L10.84 13.69L10.84 13.69Q11.98 9.95 12.78 7.01L12.78 7.01L12.78 7.01Q13.12 5.75 13.42 4.55L13.42 4.55L13.42 4.55Q13.72 3.35 13.89 2.39L13.89 2.39L13.89 2.39Q14.07 1.44 14.10 0.85L14.10 0.85L14.10 0.85Q14.13 0.25 13.92 0.22L13.92 0.22L13.92 0.22Q13.51 0.20 13.29 0.17L13.29 0.17L13.29 0.17Q13.06 0.14 12.95 0.11L12.95 0.11L12.95 0.11Q12.81 0.08 12.78 0.07L12.78 0.07ZM32.59 13.87L32.59 13.97L32.59 13.97Q32.42 13.94 32.17 13.90L32.17 13.90L32.17 13.90Q31.96 13.87 31.65 13.85L31.65 13.85L31.65 13.85Q31.35 13.83 30.95 13.83L30.95 13.83L30.95 13.83Q30.55 13.83 30.24 13.85L30.24 13.85L30.24 13.85Q29.93 13.87 29.74 13.90L29.74 13.90L29.74 13.90Q29.50 13.94 29.33 13.97L29.33 13.97L29.33 13.83L29.88 13.75L29.88 13.75Q29.88 12.19 29.85 10.40L29.85 10.40L29.85 10.40Q29.82 8.86 29.76 6.86L29.76 6.86L29.76 6.86Q29.71 4.86 29.61 2.62L29.61 2.62L29.61 2.62Q29.46 3.36 29.20 4.50L29.20 4.50L29.20 4.50Q28.94 5.64 28.54 7.09L28.54 7.09L28.54 7.09Q28.14 8.54 27.60 10.23L27.60 10.23L27.60 10.23Q27.06 11.91 26.36 13.75L26.36 13.75L26.36 13.75Q26.11 13.22 25.83 12.43L25.83 12.43L25.83 12.43Q25.55 11.65 25.25 10.72L25.25 10.72L25.25 10.72Q24.95 9.79 24.65 8.76L24.65 8.76L24.65 8.76Q24.35 7.73 24.06 6.71L24.06 6.71L24.06 6.71Q23.77 5.68 23.49 4.71L23.49 4.71L23.49 4.71Q23.21 3.74 22.97 2.93L22.97 2.93L22.97 2.93Q22.93 3.74 22.93 4.64L22.93 4.64L22.93 4.64Q22.92 5.54 22.93 6.45L22.93 6.45L22.93 6.45Q22.95 7.36 22.97 8.26L22.97 8.26L22.97 8.26Q23.00 9.16 23.03 9.97L23.03 9.97L23.03 9.97Q23.10 11.87 23.23 13.75L23.23 13.75L24.09 13.83L24.09 14.01L24.09 14.01Q23.87 13.97 23.62 13.93L23.62 13.93L23.62 13.93Q23.41 13.90 23.13 13.87L23.13 13.87L23.13 13.87Q22.85 13.83 22.55 13.83L22.55 13.83L22.55 13.83Q22.18 13.83 21.89 13.85L21.89 13.85L21.89 13.85Q21.60 13.87 21.41 13.90L21.41 13.90L21.41 13.90Q21.17 13.94 21.01 13.97L21.01 13.97L21.01 13.83L21.69 13.75L21.69 13.75Q21.84 13.20 22.02 11.79L22.02 11.79L22.02 11.79Q22.11 11.19 22.19 10.33L22.19 10.33L22.19 10.33Q22.27 9.48 22.37 8.32L22.37 8.32L22.37 8.32Q22.47 7.17 22.57 5.69L22.57 5.69L22.57 5.69Q22.67 4.21 22.78 2.34L22.78 2.34L22.78 2.34Q22.46 1.41 22.24 0.85L22.24 0.85L22.24 0.85Q22.02 0.29 21.88 0.25L21.88 0.25L21.88 0.25Q21.57 0.20 21.50 0.15L21.50 0.15L21.50 0.15Q21.45 0.14 21.43 0.13L21.43 0.13L21.43 0L21.43 0Q21.63 0.04 21.84 0.07L21.84 0.07L21.84 0.07Q22.02 0.10 22.23 0.11L22.23 0.11L22.23 0.11Q22.44 0.13 22.64 0.13L22.64 0.13L22.64 0.13Q22.83 0.13 23.10 0.11L23.10 0.11L23.10 0.11Q23.37 0.10 23.60 0.07L23.60 0.07L23.60 0.07Q23.87 0.04 24.15 0L24.15 0L24.15 0Q24.23 0.59 24.40 1.39L24.40 1.39L24.40 1.39Q24.56 2.20 24.77 3.10L24.77 3.10L24.77 3.10Q24.99 4.00 25.24 4.96L25.24 4.96L25.24 4.96Q25.48 5.92 25.72 6.83L25.72 6.83L25.72 6.83Q26.28 8.97 26.95 11.30L26.95 11.30L26.95 11.30Q27.36 9.79 27.80 8.11L27.80 8.11L27.80 8.11Q28.18 6.66 28.64 4.87L28.64 4.87L28.64 4.87Q29.11 3.08 29.55 1.22L29.55 1.22L29.55 1.22Q29.53 0.90 29.51 0.59L29.51 0.59L29.51 0.59Q29.50 0.29 29.46 0L29.46 0L29.46 0Q29.54 0.04 29.69 0.07L29.69 0.07L29.69 0.07Q29.82 0.10 30.02 0.11L30.02 0.11L30.02 0.11Q30.23 0.13 30.51 0.13L30.51 0.13L30.51 0.13Q30.84 0.13 31.13 0.11L31.13 0.11L31.13 0.11Q31.42 0.10 31.61 0.07L31.61 0.07L31.61 0.07Q31.85 0.04 32.05 0L32.05 0L32.05 0.13L31.37 0.25L31.37 0.25Q31.29 0.94 31.28 1.88L31.28 1.88L31.28 1.88Q31.26 2.83 31.29 3.91L31.29 3.91L31.29 3.91Q31.32 4.98 31.38 6.13L31.38 6.13L31.38 6.13Q31.44 7.28 31.51 8.37L31.51 8.37L31.51 8.37Q31.68 10.93 31.96 13.75L31.96 13.75L32.59 13.87ZM35.35 6.51L35.35 6.51L35.35 6.51Q35.35 5.40 35.28 4.30L35.28 4.30L35.28 4.30Q35.21 3.21 35.11 2.32L35.11 2.32L35.11 2.32Q35.01 1.44 34.89 0.88L34.89 0.88L34.89 0.88Q34.76 0.32 34.66 0.31L34.66 0.31L34.66 0.31Q34.52 0.28 34.41 0.26L34.41 0.26L34.41 0.26Q34.30 0.24 34.20 0.21L34.20 0.21L34.20 0.21Q34.09 0.18 33.99 0.17L33.99 0.17L33.99 0.04L33.99 0.04Q34.16 0.08 34.38 0.11L34.38 0.11L34.38 0.11Q34.58 0.14 34.85 0.15L34.85 0.15L34.85 0.15Q35.13 0.17 35.49 0.17L35.49 0.17L35.49 0.17Q36.27 0.17 37.01 0.11L37.01 0.11L37.01 0.11Q37.74 0.04 38.56 0.04L38.56 0.04L38.56 0.04Q39.12 0.04 39.72 0.22L39.72 0.22L39.72 0.22Q40.32 0.39 40.82 0.82L40.82 0.82L40.82 0.82Q41.33 1.25 41.66 1.95L41.66 1.95L41.66 1.95Q41.99 2.65 41.99 3.70L41.99 3.70L41.99 3.70Q41.99 4.54 41.79 5.17L41.79 5.17L41.79 5.17Q41.59 5.81 41.28 6.28L41.28 6.28L41.28 6.28Q40.96 6.75 40.57 7.06L40.57 7.06L40.57 7.06Q40.17 7.38 39.75 7.59L39.75 7.59L39.75 7.59Q38.77 8.06 37.52 8.12L37.52 8.12L37.52 8.12Q38.23 8.20 38.79 7.77L38.79 7.77L38.79 7.77Q39.03 7.59 39.26 7.28L39.26 7.28L39.26 7.28Q39.49 6.97 39.68 6.49L39.68 6.49L39.68 6.49Q39.86 6.01 39.97 5.32L39.97 5.32L39.97 5.32Q40.08 4.63 40.08 3.70L40.08 3.70L40.08 3.70Q40.08 2.94 39.89 2.31L39.89 2.31L39.89 2.31Q39.69 1.68 39.38 1.24L39.38 1.24L39.38 1.24Q39.06 0.80 38.65 0.55L38.65 0.55L38.65 0.55Q38.23 0.31 37.80 0.31L37.80 0.31L37.80 0.31Q37.52 0.31 37.35 0.37L37.35 0.37L37.35 0.37Q37.17 0.43 37.06 0.59L37.06 0.59L37.06 0.59Q36.90 1.50 36.88 3.03L36.88 3.03L36.88 3.03Q36.85 4.56 36.85 6.92L36.85 6.92L36.85 6.92Q36.85 8.79 36.92 10.08L36.92 10.08L36.92 10.08Q36.99 11.37 37.09 12.18L37.09 12.18L37.09 12.18Q37.20 13.13 37.34 13.72L37.34 13.72L38.37 13.92L38.37 14L38.37 14Q38.11 13.99 37.80 13.96L37.80 13.96L37.80 13.96Q37.53 13.94 37.17 13.93L37.17 13.93L37.17 13.93Q36.81 13.92 36.39 13.92L36.39 13.92L36.39 13.92Q35.87 13.92 35.49 13.93L35.49 13.93L35.49 13.93Q35.11 13.94 34.85 13.96L34.85 13.96L34.85 13.96Q34.54 13.99 34.31 14L34.31 14L34.31 13.92L34.31 13.92Q34.41 13.90 34.54 13.86L34.54 13.86L34.54 13.86Q34.65 13.83 34.78 13.80L34.78 13.80L34.78 13.80Q34.92 13.76 35.07 13.72L35.07 13.72L35.07 13.72Q35.21 13.71 35.27 13.09L35.27 13.09L35.27 13.09Q35.32 12.47 35.34 11.47L35.34 11.47L35.34 11.47Q35.36 10.46 35.36 9.17L35.36 9.17L35.36 9.17Q35.35 7.88 35.35 6.51ZM43.88 5.94L43.88 5.94L43.88 5.94Q43.88 4.86 43.81 3.84L43.81 3.84L43.81 3.84Q43.74 2.83 43.67 2.03L43.67 2.03L43.67 2.03Q43.57 1.09 43.46 0.27L43.46 0.27L42.69 0.14L42.69 0L42.69 0Q42.91 0.04 43.19 0.07L43.19 0.07L43.19 0.07Q43.43 0.10 43.76 0.12L43.76 0.12L43.76 0.12Q44.09 0.14 44.49 0.14L44.49 0.14L44.49 0.14Q44.94 0.14 45.27 0.12L45.27 0.12L45.27 0.12Q45.60 0.10 45.82 0.07L45.82 0.07L45.82 0.07Q46.07 0.04 46.26 0L46.26 0L46.26 0.14L45.54 0.27L45.54 0.27Q45.46 1.02 45.40 1.90L45.40 1.90L45.40 1.90Q45.35 2.66 45.31 3.65L45.31 3.65L45.31 3.65Q45.28 4.65 45.28 5.75L45.28 5.75L45.28 5.75Q45.28 7.17 45.34 8.58L45.34 8.58L45.34 8.58Q45.40 10.00 45.47 11.14L45.47 11.14L45.47 11.14Q45.56 12.49 45.68 13.72L45.68 13.72L46.44 13.86L46.44 13.99L46.44 13.99Q46.21 13.96 45.92 13.93L45.92 13.93L45.92 13.93Q45.67 13.90 45.31 13.88L45.31 13.88L45.31 13.88Q44.95 13.86 44.49 13.86L44.49 13.86L44.49 13.86Q44.03 13.86 43.70 13.88L43.70 13.88L43.70 13.88Q43.37 13.90 43.16 13.93L43.16 13.93L43.16 13.93Q42.91 13.96 42.77 13.99L42.77 13.99L42.77 13.85L43.37 13.76L43.37 13.76Q43.51 12.82 43.62 11.62L43.62 11.62L43.62 11.62Q43.72 10.58 43.80 9.15L43.80 9.15L43.80 9.15Q43.88 7.71 43.88 5.94ZM50.68 7.53L50.68 7.53L50.68 7.53Q50.67 7.57 50.75 7.62L50.75 7.62L50.75 7.62Q50.82 7.64 51.00 7.67L51.00 7.67L51.00 7.67Q51.17 7.70 51.53 7.70L51.53 7.70L51.53 7.70Q52.43 7.70 52.96 7.35L52.96 7.35L52.96 7.35Q53.48 7 53.76 6.47L53.76 6.47L53.76 6.47Q54.04 5.94 54.12 5.29L54.12 5.29L54.12 5.29Q54.21 4.63 54.21 4.05L54.21 4.05L54.21 4.05Q54.21 3.07 53.97 2.35L53.97 2.35L53.97 2.35Q53.73 1.64 53.36 1.18L53.36 1.18L53.36 1.18Q52.99 0.73 52.56 0.51L52.56 0.51L52.56 0.51Q52.12 0.29 51.74 0.29L51.74 0.29L51.74 0.29Q51.41 0.29 51.23 0.35L51.23 0.35L51.23 0.35Q51.04 0.41 50.95 0.48L50.95 0.48L50.95 0.48Q50.83 0.55 50.82 0.64L50.82 0.64L50.82 0.64Q50.76 1.47 50.74 2.37L50.74 2.37L50.74 2.37Q50.71 3.26 50.69 4.15L50.69 4.15L50.69 4.15Q50.68 5.04 50.68 5.90L50.68 5.90L50.68 5.90Q50.68 6.76 50.68 7.53ZM49.32 6.57L49.32 6.57L49.32 6.57Q49.32 5.95 49.29 5.26L49.29 5.26L49.29 5.26Q49.27 4.56 49.22 3.87L49.22 3.87L49.22 3.87Q49.18 3.18 49.13 2.53L49.13 2.53L49.13 2.53Q49.07 1.89 49.00 1.40L49.00 1.40L49.00 1.40Q48.93 0.91 48.86 0.61L48.86 0.61L48.86 0.61Q48.79 0.31 48.73 0.29L48.73 0.29L48.73 0.29Q48.59 0.27 48.45 0.24L48.45 0.24L48.45 0.24Q48.30 0.22 48.16 0.20L48.16 0.20L48.16 0.20Q48.01 0.17 47.84 0.14L47.84 0.14L47.84 0.01L47.84 0.01Q48.09 0.06 48.38 0.08L48.38 0.08L48.38 0.08Q48.64 0.11 48.97 0.13L48.97 0.13L48.97 0.13Q49.29 0.14 49.66 0.14L49.66 0.14L49.66 0.14Q50.01 0.14 50.30 0.12L50.30 0.12L50.30 0.12Q50.58 0.10 50.89 0.08L50.89 0.08L50.89 0.08Q51.20 0.06 51.58 0.04L51.58 0.04L51.58 0.04Q51.97 0.01 52.51 0.01L52.51 0.01L52.51 0.01Q53.37 0.01 54.05 0.34L54.05 0.34L54.05 0.34Q54.74 0.67 55.22 1.20L55.22 1.20L55.22 1.20Q55.71 1.72 55.96 2.36L55.96 2.36L55.96 2.36Q56.21 3.00 56.21 3.63L56.21 3.63L56.21 3.63Q56.21 4.21 56.07 4.70L56.07 4.70L56.07 4.70Q55.93 5.18 55.71 5.56L55.71 5.56L55.71 5.56Q55.48 5.95 55.19 6.25L55.19 6.25L55.19 6.25Q54.89 6.55 54.60 6.78L54.60 6.78L54.60 6.78Q53.89 7.31 52.99 7.57L52.99 7.57L52.99 7.57Q53.73 7.57 54.29 8.04L54.29 8.04L54.29 8.04Q54.84 8.50 55.27 9.19L55.27 9.19L55.27 9.19Q55.71 9.88 56.08 10.70L56.08 10.70L56.08 10.70Q56.45 11.52 56.82 12.24L56.82 12.24L56.82 12.24Q57.19 12.95 57.62 13.45L57.62 13.45L57.62 13.45Q58.04 13.94 58.62 14L58.62 14L58.62 14Q57.71 14 57.07 13.87L57.07 13.87L57.07 13.87Q56.43 13.73 55.99 13.49L55.99 13.49L55.99 13.49Q55.55 13.24 55.25 12.90L55.25 12.90L55.25 12.90Q54.95 12.56 54.71 12.14L54.71 12.14L54.71 12.14Q54.47 11.73 54.25 11.26L54.25 11.26L54.25 11.26Q54.03 10.79 53.72 10.29L53.72 10.29L53.72 10.29Q53.23 9.48 52.95 8.99L52.95 8.99L52.95 8.99Q52.67 8.50 52.40 8.25L52.40 8.25L52.40 8.25Q52.12 7.99 51.74 7.92L51.74 7.92L51.74 7.92Q51.37 7.84 50.68 7.84L50.68 7.84L50.68 7.84Q50.68 8.72 50.75 9.76L50.75 9.76L50.75 9.76Q50.82 10.79 50.90 11.68L50.90 11.68L50.90 11.68Q51.00 12.71 51.14 13.73L51.14 13.73L52.09 13.86L52.09 14L51.53 13.93L51.53 13.93Q51.28 13.90 50.94 13.88L50.94 13.88L50.94 13.88Q50.60 13.86 50.22 13.86L50.22 13.86L50.22 13.86Q49.71 13.86 49.34 13.88L49.34 13.88L49.34 13.88Q48.96 13.90 48.71 13.93L48.71 13.93L48.71 13.93Q48.41 13.97 48.22 14L48.22 14L48.22 13.90L48.22 13.90Q48.34 13.87 48.48 13.85L48.48 13.85L48.48 13.85Q48.59 13.82 48.73 13.79L48.73 13.79L48.73 13.79Q48.87 13.76 49.03 13.73L49.03 13.73L49.03 13.73Q49.25 13.71 49.29 11.97L49.29 11.97L49.29 11.97Q49.32 10.23 49.32 6.57ZM59.58 5.94L59.58 5.94L59.58 5.94Q59.58 4.86 59.51 3.84L59.51 3.84L59.51 3.84Q59.44 2.83 59.37 2.03L59.37 2.03L59.37 2.03Q59.28 1.09 59.16 0.27L59.16 0.27L58.39 0.14L58.39 0L58.39 0Q58.62 0.04 58.90 0.07L58.90 0.07L58.90 0.07Q59.14 0.10 59.47 0.12L59.47 0.12L59.47 0.12Q59.79 0.14 60.20 0.14L60.20 0.14L60.20 0.14Q60.65 0.14 60.98 0.12L60.98 0.12L60.98 0.12Q61.31 0.10 61.53 0.07L61.53 0.07L61.53 0.07Q61.78 0.04 61.96 0L61.96 0L61.96 0.14L61.25 0.27L61.25 0.27Q61.17 1.02 61.11 1.90L61.11 1.90L61.11 1.90Q61.05 2.66 61.02 3.65L61.02 3.65L61.02 3.65Q60.98 4.65 60.98 5.75L60.98 5.75L60.98 5.75Q60.98 7.17 61.05 8.58L61.05 8.58L61.05 8.58Q61.11 10.00 61.18 11.14L61.18 11.14L61.18 11.14Q61.26 12.49 61.39 13.72L61.39 13.72L62.15 13.86L62.15 13.99L62.15 13.99Q61.92 13.96 61.63 13.93L61.63 13.93L61.63 13.93Q61.38 13.90 61.02 13.88L61.02 13.88L61.02 13.88Q60.66 13.86 60.20 13.86L60.20 13.86L60.20 13.86Q59.74 13.86 59.41 13.88L59.41 13.88L59.41 13.88Q59.08 13.90 58.87 13.93L58.87 13.93L58.87 13.93Q58.62 13.96 58.48 13.99L58.48 13.99L58.48 13.85L59.08 13.76L59.08 13.76Q59.22 12.82 59.33 11.62L59.33 11.62L59.33 11.62Q59.43 10.58 59.51 9.15L59.51 9.15L59.51 9.15Q59.58 7.71 59.58 5.94ZM63.55 7.45L63.55 7.45L63.55 7.45Q63.55 5.64 63.96 4.25L63.96 4.25L63.96 4.25Q64.37 2.86 65.07 1.91L65.07 1.91L65.07 1.91Q65.77 0.97 66.69 0.48L66.69 0.48L66.69 0.48Q67.61 0 68.61 0L68.61 0L69.92 0.08L69.92 0.08Q70.29 0.08 70.42 0.04L70.42 0.04L70.42 0.04Q70.49 0.03 70.53 0L70.53 0L70.60 0L70.60 0Q70.49 0.29 70.39 0.59L70.39 0.59L70.39 0.59Q70.29 0.90 70.21 1.23L70.21 1.23L70.21 1.23Q70.13 1.57 70.07 1.96L70.07 1.96L70.07 1.96Q70.01 2.35 69.99 2.84L69.99 2.84L69.83 2.84L69.83 2.84Q69.83 2.58 69.71 2.20L69.71 2.20L69.71 2.20Q69.58 1.82 69.30 1.47L69.30 1.47L69.30 1.47Q69.02 1.12 68.54 0.88L68.54 0.88L68.54 0.88Q68.07 0.63 67.38 0.63L67.38 0.63L67.38 0.63Q66.22 0.63 65.69 2.02L65.69 2.02L65.69 2.02Q65.16 3.40 65.16 6.06L65.16 6.06L65.16 6.06Q65.16 6.78 65.25 7.57L65.25 7.57L65.25 7.57Q65.34 8.36 65.53 9.13L65.53 9.13L65.53 9.13Q65.72 9.91 66.00 10.62L66.00 10.62L66.00 10.62Q66.29 11.33 66.68 11.87L66.68 11.87L66.68 11.87Q67.07 12.40 67.57 12.73L67.57 12.73L67.57 12.73Q68.07 13.05 68.68 13.05L68.68 13.05L68.68 13.05Q69.20 13.05 69.53 12.90L69.53 12.90L69.53 12.90Q69.86 12.75 70.06 12.56L70.06 12.56L70.06 12.56Q70.28 12.33 70.38 12.05L70.38 12.05L70.53 12.21L70.53 12.21Q70.29 12.71 69.87 13.09L69.87 13.09L69.87 13.09Q69.51 13.43 68.94 13.70L68.94 13.70L68.94 13.70Q68.38 13.97 67.54 13.97L67.54 13.97L67.54 13.97Q67.16 13.97 66.71 13.86L66.71 13.86L66.71 13.86Q66.26 13.75 65.82 13.46L65.82 13.46L65.82 13.46Q65.38 13.17 64.97 12.70L64.97 12.70L64.97 12.70Q64.55 12.22 64.24 11.49L64.24 11.49L64.24 11.49Q63.92 10.77 63.74 9.77L63.74 9.77L63.74 9.77Q63.55 8.78 63.55 7.45ZM80.40 7.45L80.40 7.45L80.40 7.45Q80.40 5.64 80.82 4.25L80.82 4.25L80.82 4.25Q81.23 2.86 81.93 1.91L81.93 1.91L81.93 1.91Q82.63 0.97 83.55 0.48L83.55 0.48L83.55 0.48Q84.46 0 85.47 0L85.47 0L86.77 0.08L86.77 0.08Q87.15 0.08 87.28 0.04L87.28 0.04L87.28 0.04Q87.35 0.03 87.39 0L87.39 0L87.46 0L87.46 0Q87.35 0.29 87.25 0.59L87.25 0.59L87.25 0.59Q87.15 0.90 87.07 1.23L87.07 1.23L87.07 1.23Q86.98 1.57 86.93 1.96L86.93 1.96L86.93 1.96Q86.87 2.35 86.84 2.84L86.84 2.84L86.69 2.84L86.69 2.84Q86.69 2.58 86.56 2.20L86.56 2.20L86.56 2.20Q86.44 1.82 86.16 1.47L86.16 1.47L86.16 1.47Q85.88 1.12 85.40 0.88L85.40 0.88L85.40 0.88Q84.92 0.63 84.24 0.63L84.24 0.63L84.24 0.63Q83.08 0.63 82.54 2.02L82.54 2.02L82.54 2.02Q82.01 3.40 82.01 6.06L82.01 6.06L82.01 6.06Q82.01 6.78 82.10 7.57L82.10 7.57L82.10 7.57Q82.19 8.36 82.38 9.13L82.38 9.13L82.38 9.13Q82.57 9.91 82.86 10.62L82.86 10.62L82.86 10.62Q83.15 11.33 83.54 11.87L83.54 11.87L83.54 11.87Q83.93 12.40 84.43 12.73L84.43 12.73L84.43 12.73Q84.92 13.05 85.54 13.05L85.54 13.05L85.54 13.05Q86.06 13.05 86.39 12.90L86.39 12.90L86.39 12.90Q86.72 12.75 86.91 12.56L86.91 12.56L86.91 12.56Q87.14 12.33 87.23 12.05L87.23 12.05L87.39 12.21L87.39 12.21Q87.15 12.71 86.73 13.09L86.73 13.09L86.73 13.09Q86.37 13.43 85.80 13.70L85.80 13.70L85.80 13.70Q85.23 13.97 84.39 13.97L84.39 13.97L84.39 13.97Q84.01 13.97 83.57 13.86L83.57 13.86L83.57 13.86Q83.12 13.75 82.68 13.46L82.68 13.46L82.68 13.46Q82.24 13.17 81.82 12.70L81.82 12.70L81.82 12.70Q81.41 12.22 81.10 11.49L81.10 11.49L81.10 11.49Q80.78 10.77 80.59 9.77L80.59 9.77L80.59 9.77Q80.40 8.78 80.40 7.45ZM93.93 13.64L93.93 13.64L93.93 13.64Q94.72 13.64 95.24 13.13L95.24 13.13L95.24 13.13Q95.76 12.63 96.06 11.73L96.06 11.73L96.06 11.73Q96.36 10.84 96.48 9.63L96.48 9.63L96.48 9.63Q96.60 8.41 96.60 6.99L96.60 6.99L96.60 6.99Q96.60 6.44 96.52 5.73L96.52 5.73L96.52 5.73Q96.45 5.03 96.29 4.29L96.29 4.29L96.29 4.29Q96.14 3.56 95.89 2.85L95.89 2.85L95.89 2.85Q95.63 2.14 95.28 1.59L95.28 1.59L95.28 1.59Q94.92 1.04 94.46 0.69L94.46 0.69L94.46 0.69Q94.00 0.35 93.41 0.35L93.41 0.35L93.41 0.35Q92.72 0.35 92.23 0.91L92.23 0.91L92.23 0.91Q91.73 1.47 91.40 2.40L91.40 2.40L91.40 2.40Q91.07 3.33 90.92 4.55L90.92 4.55L90.92 4.55Q90.76 5.77 90.76 7.07L90.76 7.07L90.76 7.07Q90.76 7.57 90.83 8.26L90.83 8.26L90.83 8.26Q90.89 8.95 91.04 9.67L91.04 9.67L91.04 9.67Q91.18 10.40 91.42 11.12L91.42 11.12L91.42 11.12Q91.66 11.83 92.01 12.39L92.01 12.39L92.01 12.39Q92.36 12.95 92.83 13.29L92.83 13.29L92.83 13.29Q93.31 13.64 93.93 13.64ZM88.86 7.34L88.86 7.34L88.86 7.34Q88.86 5.78 89.26 4.44L89.26 4.44L89.26 4.44Q89.67 3.09 90.34 2.11L90.34 2.11L90.34 2.11Q91.01 1.12 91.88 0.56L91.88 0.56L91.88 0.56Q92.75 0 93.67 0L93.67 0L93.67 0Q94.78 0 95.68 0.53L95.68 0.53L95.68 0.53Q96.59 1.06 97.22 1.97L97.22 1.97L97.22 1.97Q97.86 2.88 98.20 4.10L98.20 4.10L98.20 4.10Q98.55 5.32 98.55 6.71L98.55 6.71L98.55 6.71Q98.55 8.54 98.16 9.91L98.16 9.91L98.16 9.91Q97.78 11.27 97.11 12.18L97.11 12.18L97.11 12.18Q96.45 13.09 95.57 13.54L95.57 13.54L95.57 13.54Q94.70 14 93.72 14L93.72 14L93.72 14Q92.68 14 91.92 13.70L91.92 13.70L91.92 13.70Q91.15 13.40 90.62 12.89L90.62 12.89L90.62 12.89Q90.08 12.38 89.73 11.70L89.73 11.70L89.73 11.70Q89.39 11.03 89.19 10.30L89.19 10.30L89.19 10.30Q89.00 9.56 88.93 8.80L88.93 8.80L88.93 8.80Q88.86 8.04 88.86 7.34ZM110.22 13.73L110.22 13.87L110.22 13.87Q109.86 13.79 109.47 13.78L109.47 13.78L109.47 13.78Q109.07 13.76 108.71 13.79L108.71 13.79L108.71 13.79Q108.35 13.82 108.03 13.87L108.03 13.87L108.03 13.87Q107.72 13.93 107.51 14L107.51 14L107.51 14Q107.53 13.75 107.56 13.41L107.56 13.41L107.56 13.41Q107.59 13.13 107.60 12.73L107.60 12.73L107.60 12.73Q107.62 12.32 107.63 11.83L107.63 11.83L107.63 11.83Q107.46 12.12 107.17 12.49L107.17 12.49L107.17 12.49Q106.88 12.87 106.43 13.20L106.43 13.20L106.43 13.20Q105.98 13.54 105.39 13.77L105.39 13.77L105.39 13.77Q104.79 14 104.02 14L104.02 14L104.02 14Q102.77 14 102.18 13.52L102.18 13.52L102.18 13.52Q101.58 13.03 101.37 12.07L101.37 12.07L101.37 12.07Q101.15 11.12 101.18 9.67L101.18 9.67L101.18 9.67Q101.21 8.23 101.21 6.31L101.21 6.31L101.21 6.31Q101.21 5.01 101.15 3.92L101.15 3.92L101.15 3.92Q101.09 2.83 101.02 2.02L101.02 2.02L101.02 2.02Q100.95 1.06 100.86 0.29L100.86 0.29L99.99 0.17L99.95 0.01L99.95 0.01Q100.18 0.06 100.48 0.10L100.48 0.10L100.48 0.10Q100.73 0.13 101.09 0.15L101.09 0.15L101.09 0.15Q101.44 0.17 101.89 0.17L101.89 0.17L101.89 0.17Q102.35 0.17 102.69 0.15L102.69 0.15L102.69 0.15Q103.03 0.13 103.25 0.10L103.25 0.10L103.25 0.10Q103.50 0.06 103.70 0.01L103.70 0.01L103.70 0.17L102.94 0.29L102.94 0.29Q102.80 1.40 102.70 2.55L102.70 2.55L102.70 2.55Q102.66 3.04 102.62 3.58L102.62 3.58L102.62 3.58Q102.58 4.12 102.55 4.67L102.55 4.67L102.55 4.67Q102.52 5.22 102.50 5.77L102.50 5.77L102.50 5.77Q102.48 6.31 102.48 6.82L102.48 6.82L102.48 6.82Q102.48 7.59 102.47 8.32L102.47 8.32L102.47 8.32Q102.47 9.06 102.53 9.72L102.53 9.72L102.53 9.72Q102.59 10.37 102.76 10.93L102.76 10.93L102.76 10.93Q102.93 11.48 103.26 11.89L103.26 11.89L103.26 11.89Q103.60 12.29 104.15 12.52L104.15 12.52L104.15 12.52Q104.69 12.74 105.52 12.74L105.52 12.74L105.52 12.74Q106.08 12.74 106.44 12.59L106.44 12.59L106.44 12.59Q106.81 12.45 107.04 12.20L107.04 12.20L107.04 12.20Q107.28 11.96 107.43 11.65L107.43 11.65L107.43 11.65Q107.58 11.34 107.69 11.02L107.69 11.02L107.69 11.02Q107.76 9.79 107.81 8.31L107.81 8.31L107.81 8.31Q107.86 6.83 107.86 5.40L107.86 5.40L107.86 5.40Q107.86 3.92 107.79 2.94L107.79 2.94L107.79 2.94Q107.72 1.96 107.63 1.37L107.63 1.37L107.63 1.37Q107.53 0.69 107.42 0.29L107.42 0.29L106.37 0.17L106.37 0.01L106.37 0.01Q106.61 0.06 106.88 0.10L106.88 0.10L106.88 0.10Q107.11 0.13 107.43 0.15L107.43 0.15L107.43 0.15Q107.74 0.17 108.11 0.17L108.11 0.17L108.11 0.17Q108.60 0.17 108.93 0.15L108.93 0.15L108.93 0.15Q109.26 0.13 109.45 0.10L109.45 0.10L109.45 0.10Q109.69 0.06 109.82 0.01L109.82 0.01L109.82 0.17L109.41 0.29L109.41 0.29Q109.28 1.13 109.20 2.24L109.20 2.24L109.20 2.24Q109.12 3.19 109.05 4.56L109.05 4.56L109.05 4.56Q108.99 5.92 108.99 7.67L108.99 7.67L108.99 7.67Q108.99 8.72 108.98 9.68L108.98 9.68L108.98 9.68Q108.98 10.64 109.00 11.42L109.00 11.42L109.00 11.42Q109.03 12.21 109.12 12.77L109.12 12.77L109.12 12.77Q109.20 13.33 109.37 13.57L109.37 13.57L110.22 13.73ZM122.60 0.11L121.66 0.25L121.66 0.25Q121.55 0.84 121.48 1.73L121.48 1.73L121.48 1.73Q121.41 2.62 121.35 3.68L121.35 3.68L121.35 3.68Q121.30 4.75 121.27 5.90L121.27 5.90L121.27 5.90Q121.24 7.06 121.23 8.18L121.23 8.18L121.23 8.18Q121.18 10.79 121.20 13.76L121.20 13.76L121.20 13.76Q120.09 12.29 119.05 10.77L119.05 10.77L119.05 10.77Q118.01 9.25 117.07 7.82L117.07 7.82L117.07 7.82Q116.13 6.38 115.31 5.10L115.31 5.10L115.31 5.10Q114.49 3.82 113.85 2.84L113.85 2.84L113.85 2.84Q113.88 3.70 113.95 4.80L113.95 4.80L113.95 4.80Q114.02 5.91 114.09 7.06L114.09 7.06L114.09 7.06Q114.17 8.22 114.27 9.35L114.27 9.35L114.27 9.35Q114.37 10.49 114.47 11.42L114.47 11.42L114.47 11.42Q114.58 12.35 114.69 12.98L114.69 12.98L114.69 12.98Q114.80 13.61 114.90 13.76L114.90 13.76L115.81 13.90L115.85 14L115.85 14Q115.60 13.97 115.30 13.93L115.30 13.93L115.30 13.93Q115.05 13.90 114.72 13.88L114.72 13.88L114.72 13.88Q114.38 13.86 113.99 13.86L113.99 13.86L113.99 13.86Q113.54 13.86 113.20 13.88L113.20 13.88L113.20 13.88Q112.87 13.90 112.63 13.93L112.63 13.93L112.63 13.93Q112.36 13.97 112.17 14L112.17 14L112.17 13.86L112.90 13.76L112.90 13.76Q113.02 13.57 113.11 12.87L113.11 12.87L113.11 12.87Q113.20 12.17 113.27 11.16L113.27 11.16L113.27 11.16Q113.33 10.15 113.37 8.93L113.37 8.93L113.37 8.93Q113.40 7.70 113.41 6.46L113.41 6.46L113.41 6.46Q113.41 5.22 113.39 4.06L113.39 4.06L113.39 4.06Q113.37 2.90 113.34 2.02L113.34 2.02L113.34 2.02Q112.81 1.26 112.47 0.82L112.47 0.82L112.47 0.82Q112.13 0.38 111.99 0.38L111.99 0.38L111.68 0.38L111.62 0.25L111.62 0.25Q112.11 0.24 112.60 0.20L112.60 0.20L112.60 0.20Q113.02 0.17 113.50 0.12L113.50 0.12L113.50 0.12Q113.97 0.07 114.35-0.03L114.35-0.03L114.35-0.03Q114.58 0.55 114.98 1.29L114.98 1.29L114.98 1.29Q115.37 2.04 115.86 2.88L115.86 2.88L115.86 2.88Q116.34 3.71 116.89 4.58L116.89 4.58L116.89 4.58Q117.43 5.46 117.96 6.29L117.96 6.29L117.96 6.29Q119.21 8.23 120.65 10.32L120.65 10.32L120.65 10.32Q120.64 8.04 120.55 6.03L120.55 6.03L120.55 6.03Q120.51 5.18 120.46 4.31L120.46 4.31L120.46 4.31Q120.40 3.44 120.32 2.67L120.32 2.67L120.32 2.67Q120.25 1.89 120.13 1.26L120.13 1.26L120.13 1.26Q120.02 0.63 119.88 0.25L119.88 0.25L118.80 0.11L118.76-0.03L118.76-0.03Q119.03 0.01 119.32 0.04L119.32 0.04L119.32 0.04Q119.57 0.07 119.90 0.09L119.90 0.09L119.90 0.09Q120.22 0.11 120.57 0.11L120.57 0.11L120.57 0.11Q120.96 0.11 121.32 0.09L121.32 0.09L121.32 0.09Q121.67 0.07 121.95 0.04L121.95 0.04L121.95 0.04Q122.28 0.01 122.56-0.03L122.56-0.03L122.60 0.11ZM124.00 7.45L124.00 7.45L124.00 7.45Q124.00 5.64 124.41 4.25L124.41 4.25L124.41 4.25Q124.82 2.86 125.52 1.91L125.52 1.91L125.52 1.91Q126.22 0.97 127.14 0.48L127.14 0.48L127.14 0.48Q128.06 0 129.07 0L129.07 0L130.37 0.08L130.37 0.08Q130.75 0.08 130.87 0.04L130.87 0.04L130.87 0.04Q130.94 0.03 130.98 0L130.98 0L131.05 0L131.05 0Q130.94 0.29 130.84 0.59L130.84 0.59L130.84 0.59Q130.75 0.90 130.66 1.23L130.66 1.23L130.66 1.23Q130.58 1.57 130.52 1.96L130.52 1.96L130.52 1.96Q130.47 2.35 130.44 2.84L130.44 2.84L130.28 2.84L130.28 2.84Q130.28 2.58 130.16 2.20L130.16 2.20L130.16 2.20Q130.03 1.82 129.75 1.47L129.75 1.47L129.75 1.47Q129.47 1.12 129.00 0.88L129.00 0.88L129.00 0.88Q128.52 0.63 127.83 0.63L127.83 0.63L127.83 0.63Q126.67 0.63 126.14 2.02L126.14 2.02L126.14 2.02Q125.61 3.40 125.61 6.06L125.61 6.06L125.61 6.06Q125.61 6.78 125.70 7.57L125.70 7.57L125.70 7.57Q125.79 8.36 125.98 9.13L125.98 9.13L125.98 9.13Q126.17 9.91 126.46 10.62L126.46 10.62L126.46 10.62Q126.74 11.33 127.13 11.87L127.13 11.87L127.13 11.87Q127.53 12.40 128.02 12.73L128.02 12.73L128.02 12.73Q128.52 13.05 129.14 13.05L129.14 13.05L129.14 13.05Q129.65 13.05 129.98 12.90L129.98 12.90L129.98 12.90Q130.31 12.75 130.51 12.56L130.51 12.56L130.51 12.56Q130.73 12.33 130.83 12.05L130.83 12.05L130.98 12.21L130.98 12.21Q130.75 12.71 130.33 13.09L130.33 13.09L130.33 13.09Q129.96 13.43 129.40 13.70L129.40 13.70L129.40 13.70Q128.83 13.97 127.99 13.97L127.99 13.97L127.99 13.97Q127.61 13.97 127.16 13.86L127.16 13.86L127.16 13.86Q126.71 13.75 126.27 13.46L126.27 13.46L126.27 13.46Q125.83 13.17 125.42 12.70L125.42 12.70L125.42 12.70Q125.01 12.22 124.69 11.49L124.69 11.49L124.69 11.49Q124.38 10.77 124.19 9.77L124.19 9.77L124.19 9.77Q124.00 8.78 124.00 7.45ZM133.64 5.94L133.64 5.94L133.64 5.94Q133.64 4.86 133.57 3.84L133.57 3.84L133.57 3.84Q133.50 2.83 133.43 2.03L133.43 2.03L133.43 2.03Q133.34 1.09 133.22 0.27L133.22 0.27L132.45 0.14L132.45 0L132.45 0Q132.68 0.04 132.96 0.07L132.96 0.07L132.96 0.07Q133.20 0.10 133.53 0.12L133.53 0.12L133.53 0.12Q133.85 0.14 134.26 0.14L134.26 0.14L134.26 0.14Q134.71 0.14 135.04 0.12L135.04 0.12L135.04 0.12Q135.37 0.10 135.59 0.07L135.59 0.07L135.59 0.07Q135.84 0.04 136.02 0L136.02 0L136.02 0.14L135.31 0.27L135.31 0.27Q135.23 1.02 135.17 1.90L135.17 1.90L135.17 1.90Q135.11 2.66 135.08 3.65L135.08 3.65L135.08 3.65Q135.04 4.65 135.04 5.75L135.04 5.75L135.04 5.75Q135.04 7.17 135.11 8.58L135.11 8.58L135.11 8.58Q135.17 10.00 135.24 11.14L135.24 11.14L135.24 11.14Q135.32 12.49 135.45 13.72L135.45 13.72L136.21 13.86L136.21 13.99L136.21 13.99Q135.98 13.96 135.69 13.93L135.69 13.93L135.69 13.93Q135.44 13.90 135.08 13.88L135.08 13.88L135.08 13.88Q134.72 13.86 134.26 13.86L134.26 13.86L134.26 13.86Q133.80 13.86 133.47 13.88L133.47 13.88L133.47 13.88Q133.14 13.90 132.93 13.93L132.93 13.93L132.93 13.93Q132.68 13.96 132.54 13.99L132.54 13.99L132.54 13.85L133.14 13.76L133.14 13.76Q133.28 12.82 133.39 11.62L133.39 11.62L133.39 11.62Q133.49 10.58 133.57 9.15L133.57 9.15L133.57 9.15Q133.64 7.71 133.64 5.94ZM138.70 6.90L138.70 6.90L138.70 6.90Q138.70 4.91 138.66 3.63L138.66 3.63L138.66 3.63Q138.61 2.35 138.57 1.61L138.57 1.61L138.57 1.61Q138.52 0.74 138.46 0.29L138.46 0.29L137.61 0.15L137.61 0.01L137.61 0.01Q137.82 0.06 138.07 0.08L138.07 0.08L138.07 0.08Q138.29 0.11 138.61 0.13L138.61 0.13L138.61 0.13Q138.94 0.15 139.36 0.15L139.36 0.15L139.36 0.15Q139.87 0.15 140.28 0.13L140.28 0.13L140.28 0.13Q140.69 0.11 140.97 0.08L140.97 0.08L140.97 0.08Q141.30 0.06 141.54 0.01L141.54 0.01L141.54 0.15L140.78 0.29L140.78 0.29Q140.62 1.15 140.49 2.14L140.49 2.14L140.49 2.14Q140.38 3.00 140.29 4.13L140.29 4.13L140.29 4.13Q140.20 5.26 140.20 6.54L140.20 6.54L140.20 6.54Q140.20 8.36 140.22 9.58L140.22 9.58L140.22 9.58Q140.25 10.79 140.28 11.55L140.28 11.55L140.28 11.55Q140.32 12.43 140.38 12.95L140.38 12.95L140.38 12.95Q141.27 12.95 142.07 12.89L142.07 12.89L142.07 12.89Q142.41 12.88 142.77 12.85L142.77 12.85L142.77 12.85Q143.12 12.82 143.44 12.78L143.44 12.78L143.44 12.78Q143.77 12.74 144.04 12.70L144.04 12.70L144.04 12.70Q144.31 12.66 144.49 12.59L144.49 12.59L144.76 11.56L144.90 11.61L144.90 11.61Q144.79 12.04 144.68 12.47L144.68 12.47L144.68 12.47Q144.58 12.84 144.48 13.26L144.48 13.26L144.48 13.26Q144.38 13.68 144.31 14.01L144.31 14.01L144.31 14.01Q143.79 13.93 143.24 13.91L143.24 13.91L143.24 13.91Q142.69 13.89 142.14 13.89L142.14 13.89L142.14 13.89Q141.58 13.89 141.04 13.91L141.04 13.91L141.04 13.91Q140.50 13.93 140.01 13.93L140.01 13.93L140.01 13.93Q139.36 13.93 138.92 13.94L138.92 13.94L138.92 13.94Q138.49 13.96 138.21 13.97L138.21 13.97L138.21 13.97Q137.89 14 137.69 14.01L137.69 14.01L137.69 13.93L138.29 13.79L138.29 13.79Q138.40 13.34 138.49 12.45L138.49 12.45L138.49 12.45Q138.56 11.68 138.63 10.34L138.63 10.34L138.63 10.34Q138.70 9.00 138.70 6.90Z"></path></g><!----><g data-v-423bf9ae="" id="507535f6-30fa-4dbb-8af2-8ae0af92e1da" transform="matrix(1.6124847938660272,0,0,1.6124847938660272,0.4004865962871307,-6.566308400790227)" stroke="none" fill="#DA0807"><path d="M61.47 20.22c-5.13-3.08-9.46-7.3-12.67-12.34a7.95 7.95 0 0 0-6.72-3.69 7.95 7.95 0 0 0-7.12 4.4L32 14.52 29.04 8.6a7.962 7.962 0 0 0-13.84-.71A38.515 38.515 0 0 1 2.53 20.23L0 21.74a44.262 44.262 0 0 1 14.91 23.52c1.55 6.2 7.12 10.54 13.5 10.54h7.17c6.39 0 11.95-4.35 13.5-10.54A44.338 44.338 0 0 1 64 21.74l-2.53-1.52zm-12.58 9.41a14.445 14.445 0 0 0-3.45 5.51c-.03.06-.05.12-.07.19a14.576 14.576 0 0 1-5.57 7.4c-.69.49-1.43.91-2.22 1.26-1.78.81-3.67 1.21-5.57 1.21-1.9 0-3.8-.4-5.57-1.21-.75-.34-1.48-.75-2.15-1.21 0 0 0-.01-.01-.01-.87-.59-1.66-1.27-2.37-2.02-.09-.09-.19-.19-.27-.28a14.568 14.568 0 0 1-2.99-5.14.694.694 0 0 0-.05-.13c-.71-2.1-1.9-3.99-3.47-5.56l-7.89-7.89 7.76-3.6a11.533 11.533 0 0 1 4.77-1.05c.19 0 .37 0 .57.02 1.61.07 3.2.5 4.67 1.26.3.14.6.31.89.5a11.322 11.322 0 0 0 12.22 0c.3-.19.6-.36.91-.52 1.19-.61 2.46-1 3.76-1.16 1.11-.15 2.24-.13 3.35.05l.01.01c.98.15 1.94.45 2.86.88l7.77 3.59-7.89 7.9z"></path><path d="M48.05 19.43a9.95 9.95 0 0 0-1.44-.52c1.1 1.85 2.3 5.57-1.9 9.77 0 0 .5-2.76-1.39-5.79L40 24l-2-1-1 2-3 1-2-2-2 2-3-1-1-2-2 1-3.3-1.1c-1.93 3.05-1.47 5.84-1.47 5.84-4.21-4.21-2.98-7.96-1.87-9.83-.49.14-.96.3-1.41.51L9.72 22.3l6.63 6.63c1.43 1.43 2.55 3.16 3.3 5.03.59-.87 1.64-2.24 3.35-3.94-.06.35-.69 4.3-.11 7.98H25l2 1 1 1 1-1h2l1 1 1-1h2l1 1 1-1 2-1h2.15c.58-3.68-.06-7.64-.11-7.98 1.69 1.68 2.73 3.04 3.33 3.91a15.02 15.02 0 0 1 3.28-5l6.63-6.63-6.23-2.87zM50 53l-1.44 2.4c-.89 1.49-1.06 4.47 1.33 4.6 2.58.14 2.49-3.04 1.55-4.6L50 53zM10.23 43.49s-1.95 3.26-1.96 3.26c-1.21 2.02-1.44 6.07 1.8 6.24 3.5.18 3.38-4.12 2.11-6.24l-1.95-3.26z"></path></g><!----></svg>